<?xml version="1.0" standalone="no"?>
<!DOCTYPE svg PUBLIC "-//W3C//DTD SVG 20010904//EN"
 "http://www.w3.org/TR/2001/REC-SVG-20010904/DTD/svg10.dtd">
<svg version="1.0" xmlns="http://www.w3.org/2000/svg"
 width="348.000000pt" height="492.000000pt" viewBox="0 0 348.000000 492.000000"
 preserveAspectRatio="xMidYMid meet">
<metadata>
Created by potrace 1.16, written by Peter Selinger 2001-2019
</metadata>
<g transform="translate(0.000000,492.000000) scale(0.100000,-0.100000)"
fill="#FFFFFF" stroke="none">
<path d="M1645 4730 c-116 -5 -123 -7 -205 -46 -219 -106 -357 -298 -367 -509
-6 -115 22 -252 69 -333 64 -114 189 -214 313 -252 22 -7 87 -15 145 -19 l105
-6 3 -34 c2 -18 -2 -64 -8 -102 -12 -72 -15 -75 -70 -71 -72 4 -256 -23 -335
-49 -161 -55 -325 -146 -325 -181 0 -5 17 5 37 23 71 62 299 152 428 169 39 5
136 10 218 10 177 0 298 -23 535 -102 207 -68 360 -165 447 -281 34 -46 45
-41 16 7 -59 94 -240 222 -404 283 -119 45 -353 102 -449 110 -92 7 -95 12
-73 125 19 102 30 123 71 136 19 6 79 34 132 64 178 98 294 241 338 417 23 94
16 269 -14 335 -36 81 -151 185 -263 239 -122 60 -192 73 -344 67z"/>
<path d="M523 3444 c-29 -41 -79 -195 -93 -286 -14 -87 -8 -282 10 -341 6 -22
13 -37 15 -35 3 2 -1 22 -7 44 -17 55 -14 233 5 334 17 97 84 279 104 287 25
10 207 -39 290 -77 44 -21 114 -59 153 -84 40 -26 75 -45 78 -42 7 7 7 7 -58
48 -134 85 -322 162 -426 174 -48 6 -52 5 -71 -22z"/>
<path d="M2865 3279 c-130 -20 -301 -73 -341 -105 -19 -15 -19 -16 1 -8 185
70 315 95 497 97 75 1 139 -1 142 -4 4 -3 6 -84 7 -180 0 -130 -4 -193 -16
-247 -21 -92 -14 -106 9 -18 33 133 50 446 24 462 -18 11 -256 14 -323 3z"/>
<path d="M2925 3111 c-175 -61 -246 -93 -236 -109 6 -9 22 -6 62 11 144 64
320 129 333 124 21 -8 21 -125 1 -217 -15 -71 -13 -91 3 -38 19 59 34 190 27
234 -8 56 -11 56 -190 -5z"/>
<path d="M659 2879 c-9 -19 -45 -65 -79 -104 -78 -87 -131 -159 -157 -210 -39
-76 -46 -140 -52 -462 l-6 -311 -24 -26 c-24 -26 -24 -26 -3 -26 44 0 52 41
52 259 0 212 14 433 32 491 17 59 83 161 159 245 79 89 102 126 97 157 -3 18
-5 16 -19 -13z"/>
<path d="M3028 2604 c72 -61 122 -201 122 -340 0 -57 -27 -187 -60 -288 -19
-59 -22 -83 -18 -180 3 -81 9 -119 22 -141 15 -27 17 -27 11 -5 -3 14 -9 75
-12 135 -5 105 -4 117 31 240 19 72 38 162 42 200 9 98 -10 216 -44 279 -29
54 -103 136 -124 136 -6 0 7 -16 30 -36z"/>
<path d="M2395 1795 c-153 -34 -365 -149 -365 -199 0 -23 16 -20 76 14 132 76
333 116 535 107 126 -5 149 -1 149 28 0 7 -17 19 -37 28 -86 37 -246 47 -358
22z"/>
<path d="M731 1782 c-70 -19 -96 -42 -71 -66 12 -12 30 -13 105 -5 185 21 430
-27 583 -114 101 -57 72 5 -36 76 -77 51 -164 90 -249 112 -77 20 -249 18
-332 -3z"/>
<path d="M393 1684 c-77 -28 -160 -122 -188 -212 -7 -23 -7 -23 25 -7 41 21
45 15 21 -26 -26 -44 -61 -190 -61 -254 l0 -50 43 49 c23 28 49 58 57 69 14
16 15 7 15 -92 0 -60 3 -112 6 -116 4 -3 23 5 44 19 38 26 55 26 55 0 0 -8 29
-71 65 -141 71 -137 139 -228 168 -222 14 3 5 19 -42 76 -57 70 -146 230 -171
306 -6 20 -14 37 -17 37 -4 0 -26 -12 -51 -26 l-44 -26 4 83 c3 61 11 101 30
147 14 34 23 62 19 62 -4 0 -40 -30 -80 -67 l-74 -67 7 39 c11 59 52 154 88
204 l31 44 -46 -5 c-26 -3 -47 -4 -47 -1 0 2 9 21 20 42 34 67 68 99 131 122
32 12 59 23 59 25 0 7 -25 2 -67 -12z"/>
<path d="M1630 1584 c-127 -34 -165 -73 -164 -167 1 -97 69 -272 132 -339 36
-39 84 -53 119 -36 63 30 128 151 158 295 27 127 13 202 -44 240 -40 27 -115
30 -201 7z"/>
<path d="M3127 1575 c28 -42 39 -80 22 -73 -40 15 -59 18 -59 11 0 -5 16 -15
35 -22 26 -9 49 -32 85 -83 28 -39 49 -73 47 -74 -2 -2 -22 6 -45 18 -24 11
-45 18 -48 16 -2 -3 17 -60 42 -127 26 -66 45 -123 43 -125 -2 -3 -42 8 -87
25 -86 30 -135 39 -99 18 16 -9 18 -19 12 -62 -4 -29 -16 -74 -26 -101 -10
-28 -16 -52 -14 -54 6 -7 43 81 56 134 6 25 15 47 20 49 12 8 106 -32 155 -66
48 -33 53 -27 25 29 -10 20 -26 62 -36 92 -10 30 -31 81 -47 113 l-29 58 33
-17 c18 -9 47 -28 64 -40 17 -13 34 -24 37 -24 6 0 -44 86 -91 159 -16 23 -15
23 8 16 20 -6 14 5 -34 61 -76 89 -94 106 -69 69z"/>
<path d="M1640 868 c-36 -19 -38 -60 -4 -87 22 -17 40 -21 108 -21 94 0 126
15 126 58 0 51 -12 57 -112 60 -62 2 -101 -2 -118 -10z m201 -8 c12 -7 19 -21
19 -40 0 -37 -23 -50 -90 -50 -28 0 -60 5 -71 10 -23 13 -25 53 -3 74 18 19
114 22 145 6z"/>
</g>
</svg>
